<svg
   width="24.372484mm"
   height="8.7495184mm"
   viewBox="0 0 24.372484 8.7495183"
   version="1.1"
   id="svg5"
   inkscape:version="1.1.2 (0a00cf5339, 2022-02-04)"
   sodipodi:docname="bprcf.svg"
   xmlns:inkscape="http://www.inkscape.org/namespaces/inkscape"
   xmlns:sodipodi="http://sodipodi.sourceforge.net/DTD/sodipodi-0.dtd"
   xmlns="http://www.w3.org/2000/svg"
   xmlns:svg="http://www.w3.org/2000/svg">
  <sodipodi:namedview
     id="namedview7"
     pagecolor="#ffffff"
     bordercolor="#666666"
     borderopacity="1.0"
     inkscape:pageshadow="2"
     inkscape:pageopacity="0.0"
     inkscape:pagecheckerboard="0"
     inkscape:document-units="mm"
     showgrid="false"
     inkscape:lockguides="true"
     inkscape:zoom="1.6641134"
     inkscape:cx="19.529919"
     inkscape:cy="35.153854"
     inkscape:window-width="1366"
     inkscape:window-height="703"
     inkscape:window-x="0"
     inkscape:window-y="0"
     inkscape:window-maximized="1"
     inkscape:current-layer="text2409" />
  <defs
     id="defs2" />
  <g
     inkscape:label="Layer 1"
     inkscape:groupmode="layer"
     id="layer1"
     transform="translate(140.68199,-27.456024)">
    <g
       aria-label="bprcf"
       transform="scale(1.0054705,0.99455926)"
       id="text2409"
       style="font-size:11.0938px;line-height:1.25;fill:#ffffff;stroke-width:0.277343">
      <path
         d="m -139.19548,27.617316 q 0.14422,-0.01109 0.27735,0.05547 0.13312,0.05547 0.23297,0.155313 0.11093,0.09984 0.1664,0.244064 0.0555,0.133125 0.0555,0.277345 v 1.275786 q 0.38829,-0.199688 0.79876,-0.255157 0.42156,-0.06656 0.83203,0 0.41047,0.05547 0.79875,0.244064 0.38829,0.1775 0.7211,0.488127 0.38828,0.399377 0.57688,0.865316 0.19969,0.454846 0.19969,1.042817 0,0.55469 -0.22188,1.042818 -0.21078,0.488127 -0.57688,0.854222 -0.36609,0.366096 -0.85422,0.576878 -0.48813,0.210782 -1.03172,0.210782 -0.5325,0 -1.02063,-0.210782 -0.48813,-0.221876 -0.86532,-0.587972 -0.36609,-0.366095 -0.58797,-0.854222 -0.22188,-0.488127 -0.22188,-1.031724 v -3.716422 q 0,-0.133126 0.0666,-0.255158 0.0666,-0.133125 0.1664,-0.221876 0.0998,-0.09984 0.22188,-0.155313 0.13313,-0.05547 0.26625,-0.04438 z m 0.73219,4.393144 q 0,0.255158 0.0999,0.488128 0.0998,0.221876 0.26625,0.388283 0.1775,0.166407 0.39937,0.266251 0.22188,0.09984 0.47704,0.09984 0.24406,0 0.46594,-0.09984 0.23297,-0.09984 0.39937,-0.266251 0.17751,-0.166407 0.27735,-0.388283 0.0998,-0.23297 0.0998,-0.488128 0,-0.255157 -0.0998,-0.477033 -0.0998,-0.23297 -0.27735,-0.399377 -0.1664,-0.166407 -0.39937,-0.266251 -0.22188,-0.09984 -0.46594,-0.09984 -0.25516,0 -0.47704,0.110938 -0.22187,0.09984 -0.39937,0.277345 -0.16641,0.166407 -0.26625,0.399377 -0.0999,0.221876 -0.0999,0.454845 z"
         style="font-family:'Arista 2.0';-inkscape-font-specification:'Arista 2.0, '"
         id="path8" />
      <path
         d="m -131.37437,29.325761 q 0.5436,0 1.03173,0.210782 0.48812,0.210782 0.85422,0.576878 0.3661,0.366095 0.57688,0.854222 0.22187,0.488127 0.22187,1.042817 0,0.55469 -0.21078,1.042818 -0.19969,0.488127 -0.56578,0.854222 -0.355,0.366096 -0.85422,0.576878 -0.48813,0.210782 -1.05392,0.210782 -0.68781,0 -1.2425,-0.277345 v 1.275787 q 0,0.288439 -0.21078,0.499221 -0.21079,0.210782 -0.52141,0.210782 -0.27735,0 -0.49922,-0.199688 -0.21079,-0.188595 -0.22188,-0.477034 V 32.01046 q 0,-0.543596 0.21078,-1.031723 0.22188,-0.488127 0.58797,-0.854223 0.3661,-0.366095 0.85423,-0.576877 0.48812,-0.221876 1.04281,-0.221876 z m -1.2425,2.684699 q 0,0.277345 0.0998,0.510315 0.0999,0.221876 0.26625,0.388283 0.1775,0.166407 0.39938,0.266251 0.23297,0.08875 0.47703,0.08875 0.26626,0 0.48813,-0.09984 0.22188,-0.09985 0.38828,-0.266252 0.16641,-0.1775 0.25516,-0.399376 0.0998,-0.23297 0.0998,-0.488128 0,-0.255157 -0.0998,-0.477033 -0.0998,-0.23297 -0.26625,-0.399377 -0.16641,-0.166407 -0.38828,-0.255157 -0.22188,-0.09984 -0.47704,-0.09984 -0.26625,0 -0.49922,0.09984 -0.22187,0.09984 -0.38828,0.266251 -0.16641,0.166407 -0.26625,0.388283 -0.0888,0.221876 -0.0888,0.477033 z"
         style="font-family:'Arista 2.0';-inkscape-font-specification:'Arista 2.0, '"
         id="path10" />
      <path
         d="m -127.55812,34.706254 q -0.29953,0 -0.49922,-0.188595 -0.19968,-0.199688 -0.22187,-0.521408 v -2.052353 q 0.0111,-0.532503 0.22187,-0.998442 0.22188,-0.477034 0.57688,-0.820942 0.3661,-0.355001 0.84313,-0.554689 0.48813,-0.210783 1.03172,-0.23297 0.31063,0 0.51032,0.210782 0.21078,0.210782 0.23297,0.510315 0,0.299532 -0.21078,0.510314 -0.21079,0.199689 -0.52141,0.210783 -0.25516,0 -0.47704,0.09984 -0.22187,0.08875 -0.38828,0.255157 -0.16641,0.166407 -0.26625,0.399377 -0.0998,0.221876 -0.0998,0.488127 v 2.019072 q -0.0222,0.288439 -0.22188,0.477033 -0.18859,0.188595 -0.51032,0.188595 z"
         style="font-family:'Arista 2.0';-inkscape-font-specification:'Arista 2.0, '"
         id="path12" />
      <path
         d="m -122.06671,29.325761 q 1.10938,0 1.88595,0.776566 0.18859,0.210782 0.1664,0.499221 -0.0111,0.288439 -0.21078,0.477033 -0.19969,0.188595 -0.51031,0.199689 -0.31063,0.01109 -0.51032,-0.199689 -0.34391,-0.310626 -0.82094,-0.310626 -0.25516,0 -0.48813,0.110938 -0.22187,0.09984 -0.39937,0.277345 -0.16641,0.166407 -0.26625,0.388283 -0.0999,0.221876 -0.0999,0.465939 0,0.255158 0.0999,0.488128 0.0998,0.221876 0.27734,0.399376 0.1775,0.166407 0.39938,0.266252 0.22187,0.09984 0.47703,0.08875 0.48813,0 0.82094,-0.299533 0.19969,-0.221876 0.51032,-0.221876 0.31062,0 0.51031,0.221876 0.0998,0.08875 0.15532,0.210783 0.0555,0.122031 0.0555,0.255157 0.0111,0.133126 -0.0333,0.266251 -0.0444,0.122032 -0.13312,0.221876 -0.38829,0.388283 -0.85423,0.587972 -0.46593,0.199688 -1.03172,0.199688 -0.55469,0 -1.04282,-0.210782 -0.48812,-0.221876 -0.85422,-0.587972 -0.36609,-0.366095 -0.58797,-0.854222 -0.21078,-0.488127 -0.21078,-1.031724 0,-0.532502 0.21078,-1.020629 0.22188,-0.488127 0.58797,-0.854223 0.37719,-0.366095 0.86532,-0.587971 0.48813,-0.221876 1.03172,-0.221876 z"
         style="font-family:'Arista 2.0';-inkscape-font-specification:'Arista 2.0, '"
         id="path14" />
      <path
         d="m -116.46435,27.606222 q 0.32172,0 0.54359,0.177501 0.22188,0.177501 0.24407,0.532502 0,0.288439 -0.21079,0.488127 -0.19969,0.199689 -0.51031,0.221876 -0.23297,0.01109 -0.3661,0.166407 -0.13312,0.155314 -0.13312,0.366096 v 1.087192 q 0.51031,0.02219 0.69891,0.23297 0.19968,0.199688 0.19968,0.499221 0,0.299532 -0.18859,0.499221 -0.18859,0.199688 -0.71,0.221876 v 2.229854 q 0,0.32172 -0.11094,0.621252 -0.0999,0.299533 -0.28844,0.532503 -0.18859,0.244063 -0.45485,0.432658 -0.25515,0.188594 -0.58797,0.288439 -0.19969,0.06656 -0.41047,0.05547 -0.21078,0 -0.38828,-0.08875 -0.16641,-0.07766 -0.28844,-0.23297 -0.12203,-0.155313 -0.13312,-0.399376 0,-0.288439 0.19968,-0.499221 0.21079,-0.199689 0.49922,-0.210782 0.22188,0 0.3661,-0.155314 0.15531,-0.166407 0.15531,-0.366095 v -2.207666 q -0.52141,0 -0.69891,-0.199689 -0.1775,-0.199688 -0.19968,-0.521408 0,-0.288439 0.18859,-0.488127 0.18859,-0.210783 0.71,-0.244064 v -1.098286 q 0,-0.377189 0.14422,-0.721097 0.14422,-0.355002 0.39938,-0.621253 0.25516,-0.277345 0.59906,-0.432658 0.34391,-0.166407 0.7322,-0.166407 z"
         style="font-family:'Arista 2.0';-inkscape-font-specification:'Arista 2.0, '"
         id="path16" />
    </g>
  </g>
</svg>
